<mxfile host="app.diagrams.net" modified="2024-02-25T03:16:53.125Z" agent="Mozilla/5.0 (Windows NT 10.0; Win64; x64) AppleWebKit/537.36 (KHTML, like Gecko) Chrome/121.0.0.0 Safari/537.36" etag="S39k_kZAJkqznrtoAnUd" version="23.1.5" type="device">
  <diagram name="Page-1" id="My04iPDE87iwI_xUb_gP">
    <mxGraphModel dx="1596" dy="763" grid="1" gridSize="10" guides="1" tooltips="1" connect="1" arrows="1" fold="1" page="1" pageScale="1" pageWidth="2027" pageHeight="1169" math="0" shadow="0">
      <root>
        <mxCell id="0" />
        <mxCell id="1" parent="0" />
        <mxCell id="GmGY9-1nHvUCIWFC042A-16" value="" style="rounded=0;whiteSpace=wrap;html=1;" parent="1" vertex="1">
          <mxGeometry y="40" width="370" height="640" as="geometry" />
        </mxCell>
        <mxCell id="GmGY9-1nHvUCIWFC042A-20" value="Home Screen" style="text;html=1;strokeColor=none;fillColor=none;align=center;verticalAlign=middle;whiteSpace=wrap;rounded=0;" parent="1" vertex="1">
          <mxGeometry x="125" y="10" width="120" height="30" as="geometry" />
        </mxCell>
        <mxCell id="GmGY9-1nHvUCIWFC042A-22" value="" style="rounded=0;whiteSpace=wrap;html=1;" parent="1" vertex="1">
          <mxGeometry x="390" y="40" width="370" height="640" as="geometry" />
        </mxCell>
        <mxCell id="GmGY9-1nHvUCIWFC042A-24" value="Order Review Screen" style="text;html=1;strokeColor=none;fillColor=none;align=center;verticalAlign=middle;whiteSpace=wrap;rounded=0;" parent="1" vertex="1">
          <mxGeometry x="515" y="10" width="120" height="30" as="geometry" />
        </mxCell>
        <mxCell id="GmGY9-1nHvUCIWFC042A-30" value="&lt;font style=&quot;font-size: 19px;&quot;&gt;Bicycle Repair&lt;/font&gt;" style="rounded=1;whiteSpace=wrap;html=1;" parent="1" vertex="1">
          <mxGeometry x="66.25" y="65" width="237.5" height="60" as="geometry" />
        </mxCell>
        <mxCell id="GmGY9-1nHvUCIWFC042A-33" value="Submit Order Button" style="rounded=0;whiteSpace=wrap;html=1;" parent="1" vertex="1">
          <mxGeometry x="70.94" y="610" width="220" height="50" as="geometry" />
        </mxCell>
        <mxCell id="YA3-FLJ5RVMtPMUy6DpP-3" value="" style="ellipse;whiteSpace=wrap;html=1;aspect=fixed;" vertex="1" parent="1">
          <mxGeometry x="133.13" y="172.5" width="15" height="15" as="geometry" />
        </mxCell>
        <mxCell id="YA3-FLJ5RVMtPMUy6DpP-5" value="Repair Time:" style="text;html=1;align=center;verticalAlign=middle;whiteSpace=wrap;rounded=0;" vertex="1" parent="1">
          <mxGeometry x="135" y="135" width="100" height="30" as="geometry" />
        </mxCell>
        <mxCell id="YA3-FLJ5RVMtPMUy6DpP-6" value="Option 2" style="text;html=1;align=center;verticalAlign=middle;whiteSpace=wrap;rounded=0;" vertex="1" parent="1">
          <mxGeometry x="143.13" y="165" width="100" height="30" as="geometry" />
        </mxCell>
        <mxCell id="YA3-FLJ5RVMtPMUy6DpP-7" value="" style="ellipse;whiteSpace=wrap;html=1;aspect=fixed;" vertex="1" parent="1">
          <mxGeometry x="33.129999999999995" y="172.5" width="15" height="15" as="geometry" />
        </mxCell>
        <mxCell id="YA3-FLJ5RVMtPMUy6DpP-8" value="Option 1" style="text;html=1;align=center;verticalAlign=middle;whiteSpace=wrap;rounded=0;" vertex="1" parent="1">
          <mxGeometry x="43.129999999999995" y="165" width="100" height="30" as="geometry" />
        </mxCell>
        <mxCell id="YA3-FLJ5RVMtPMUy6DpP-9" value="" style="ellipse;whiteSpace=wrap;html=1;aspect=fixed;" vertex="1" parent="1">
          <mxGeometry x="235" y="172.5" width="15" height="15" as="geometry" />
        </mxCell>
        <mxCell id="YA3-FLJ5RVMtPMUy6DpP-10" value="Option 3" style="text;html=1;align=center;verticalAlign=middle;whiteSpace=wrap;rounded=0;" vertex="1" parent="1">
          <mxGeometry x="245" y="165" width="100" height="30" as="geometry" />
        </mxCell>
        <mxCell id="YA3-FLJ5RVMtPMUy6DpP-11" value="Service Types:" style="text;html=1;align=center;verticalAlign=middle;whiteSpace=wrap;rounded=0;" vertex="1" parent="1">
          <mxGeometry x="80" y="205" width="100" height="30" as="geometry" />
        </mxCell>
        <mxCell id="YA3-FLJ5RVMtPMUy6DpP-12" value="Option 1" style="text;html=1;align=center;verticalAlign=middle;whiteSpace=wrap;rounded=0;" vertex="1" parent="1">
          <mxGeometry x="135" y="235" width="100" height="30" as="geometry" />
        </mxCell>
        <mxCell id="YA3-FLJ5RVMtPMUy6DpP-13" value="" style="whiteSpace=wrap;html=1;aspect=fixed;" vertex="1" parent="1">
          <mxGeometry x="115" y="240" width="20" height="20" as="geometry" />
        </mxCell>
        <mxCell id="YA3-FLJ5RVMtPMUy6DpP-14" value="Option 2" style="text;html=1;align=center;verticalAlign=middle;whiteSpace=wrap;rounded=0;" vertex="1" parent="1">
          <mxGeometry x="135" y="260" width="100" height="30" as="geometry" />
        </mxCell>
        <mxCell id="YA3-FLJ5RVMtPMUy6DpP-15" value="" style="whiteSpace=wrap;html=1;aspect=fixed;" vertex="1" parent="1">
          <mxGeometry x="115" y="265" width="20" height="20" as="geometry" />
        </mxCell>
        <mxCell id="YA3-FLJ5RVMtPMUy6DpP-16" value="Option 3" style="text;html=1;align=center;verticalAlign=middle;whiteSpace=wrap;rounded=0;" vertex="1" parent="1">
          <mxGeometry x="135" y="285" width="100" height="30" as="geometry" />
        </mxCell>
        <mxCell id="YA3-FLJ5RVMtPMUy6DpP-17" value="" style="whiteSpace=wrap;html=1;aspect=fixed;" vertex="1" parent="1">
          <mxGeometry x="115" y="290" width="20" height="20" as="geometry" />
        </mxCell>
        <mxCell id="YA3-FLJ5RVMtPMUy6DpP-18" value="Option 4" style="text;html=1;align=center;verticalAlign=middle;whiteSpace=wrap;rounded=0;" vertex="1" parent="1">
          <mxGeometry x="135" y="310" width="100" height="30" as="geometry" />
        </mxCell>
        <mxCell id="YA3-FLJ5RVMtPMUy6DpP-19" value="" style="whiteSpace=wrap;html=1;aspect=fixed;" vertex="1" parent="1">
          <mxGeometry x="115" y="315" width="20" height="20" as="geometry" />
        </mxCell>
        <mxCell id="YA3-FLJ5RVMtPMUy6DpP-20" value="Option 5" style="text;html=1;align=center;verticalAlign=middle;whiteSpace=wrap;rounded=0;" vertex="1" parent="1">
          <mxGeometry x="135" y="335" width="100" height="30" as="geometry" />
        </mxCell>
        <mxCell id="YA3-FLJ5RVMtPMUy6DpP-21" value="" style="whiteSpace=wrap;html=1;aspect=fixed;" vertex="1" parent="1">
          <mxGeometry x="115" y="340" width="20" height="20" as="geometry" />
        </mxCell>
        <mxCell id="YA3-FLJ5RVMtPMUy6DpP-22" value="Option 6" style="text;html=1;align=center;verticalAlign=middle;whiteSpace=wrap;rounded=0;" vertex="1" parent="1">
          <mxGeometry x="135" y="360" width="100" height="30" as="geometry" />
        </mxCell>
        <mxCell id="YA3-FLJ5RVMtPMUy6DpP-23" value="" style="whiteSpace=wrap;html=1;aspect=fixed;" vertex="1" parent="1">
          <mxGeometry x="115" y="365" width="20" height="20" as="geometry" />
        </mxCell>
        <mxCell id="YA3-FLJ5RVMtPMUy6DpP-24" value="Option 7" style="text;html=1;align=center;verticalAlign=middle;whiteSpace=wrap;rounded=0;" vertex="1" parent="1">
          <mxGeometry x="135" y="385" width="100" height="30" as="geometry" />
        </mxCell>
        <mxCell id="YA3-FLJ5RVMtPMUy6DpP-25" value="" style="whiteSpace=wrap;html=1;aspect=fixed;" vertex="1" parent="1">
          <mxGeometry x="115" y="390" width="20" height="20" as="geometry" />
        </mxCell>
        <mxCell id="YA3-FLJ5RVMtPMUy6DpP-26" value="Option 8" style="text;html=1;align=center;verticalAlign=middle;whiteSpace=wrap;rounded=0;" vertex="1" parent="1">
          <mxGeometry x="135" y="410" width="100" height="30" as="geometry" />
        </mxCell>
        <mxCell id="YA3-FLJ5RVMtPMUy6DpP-27" value="" style="whiteSpace=wrap;html=1;aspect=fixed;" vertex="1" parent="1">
          <mxGeometry x="115" y="415" width="20" height="20" as="geometry" />
        </mxCell>
        <mxCell id="YA3-FLJ5RVMtPMUy6DpP-28" value="Option 9" style="text;html=1;align=center;verticalAlign=middle;whiteSpace=wrap;rounded=0;" vertex="1" parent="1">
          <mxGeometry x="135" y="435" width="100" height="30" as="geometry" />
        </mxCell>
        <mxCell id="YA3-FLJ5RVMtPMUy6DpP-29" value="" style="whiteSpace=wrap;html=1;aspect=fixed;" vertex="1" parent="1">
          <mxGeometry x="115" y="440" width="20" height="20" as="geometry" />
        </mxCell>
        <mxCell id="YA3-FLJ5RVMtPMUy6DpP-30" value="" style="rounded=1;whiteSpace=wrap;html=1;" vertex="1" parent="1">
          <mxGeometry x="118.13" y="530" width="30" height="10" as="geometry" />
        </mxCell>
        <mxCell id="YA3-FLJ5RVMtPMUy6DpP-31" value="" style="ellipse;whiteSpace=wrap;html=1;aspect=fixed;" vertex="1" parent="1">
          <mxGeometry x="111.25999999999999" y="525" width="20" height="20" as="geometry" />
        </mxCell>
        <mxCell id="YA3-FLJ5RVMtPMUy6DpP-33" value="Option 1" style="text;html=1;align=center;verticalAlign=middle;whiteSpace=wrap;rounded=0;" vertex="1" parent="1">
          <mxGeometry x="51.25999999999999" y="520" width="56.87" height="30" as="geometry" />
        </mxCell>
        <mxCell id="YA3-FLJ5RVMtPMUy6DpP-34" value="" style="rounded=1;whiteSpace=wrap;html=1;" vertex="1" parent="1">
          <mxGeometry x="260.94" y="530" width="30" height="10" as="geometry" />
        </mxCell>
        <mxCell id="YA3-FLJ5RVMtPMUy6DpP-35" value="" style="ellipse;whiteSpace=wrap;html=1;aspect=fixed;" vertex="1" parent="1">
          <mxGeometry x="254.07" y="525" width="20" height="20" as="geometry" />
        </mxCell>
        <mxCell id="YA3-FLJ5RVMtPMUy6DpP-36" value="Option 2" style="text;html=1;align=center;verticalAlign=middle;whiteSpace=wrap;rounded=0;" vertex="1" parent="1">
          <mxGeometry x="194.07" y="520" width="56.87" height="30" as="geometry" />
        </mxCell>
        <mxCell id="YA3-FLJ5RVMtPMUy6DpP-37" value="&lt;font style=&quot;font-size: 19px;&quot;&gt;Order Summery&lt;/font&gt;" style="rounded=1;whiteSpace=wrap;html=1;" vertex="1" parent="1">
          <mxGeometry x="456.25" y="65" width="237.5" height="60" as="geometry" />
        </mxCell>
        <mxCell id="YA3-FLJ5RVMtPMUy6DpP-38" value="Repair Time:" style="text;html=1;align=center;verticalAlign=middle;whiteSpace=wrap;rounded=0;" vertex="1" parent="1">
          <mxGeometry x="400" y="142.5" width="100" height="30" as="geometry" />
        </mxCell>
        <mxCell id="YA3-FLJ5RVMtPMUy6DpP-39" value="Services:" style="text;html=1;align=center;verticalAlign=middle;whiteSpace=wrap;rounded=0;" vertex="1" parent="1">
          <mxGeometry x="390" y="187.5" width="100" height="30" as="geometry" />
        </mxCell>
        <mxCell id="YA3-FLJ5RVMtPMUy6DpP-40" value="Subscriptions:" style="text;html=1;align=center;verticalAlign=middle;whiteSpace=wrap;rounded=0;" vertex="1" parent="1">
          <mxGeometry x="400" y="430" width="100" height="30" as="geometry" />
        </mxCell>
        <mxCell id="YA3-FLJ5RVMtPMUy6DpP-41" value="Option 1" style="text;html=1;align=center;verticalAlign=middle;whiteSpace=wrap;rounded=0;" vertex="1" parent="1">
          <mxGeometry x="525" y="205" width="100" height="30" as="geometry" />
        </mxCell>
        <mxCell id="YA3-FLJ5RVMtPMUy6DpP-42" value="Option 2" style="text;html=1;align=center;verticalAlign=middle;whiteSpace=wrap;rounded=0;" vertex="1" parent="1">
          <mxGeometry x="525" y="230" width="100" height="30" as="geometry" />
        </mxCell>
        <mxCell id="YA3-FLJ5RVMtPMUy6DpP-43" value="Option 3" style="text;html=1;align=center;verticalAlign=middle;whiteSpace=wrap;rounded=0;" vertex="1" parent="1">
          <mxGeometry x="525" y="255" width="100" height="30" as="geometry" />
        </mxCell>
        <mxCell id="YA3-FLJ5RVMtPMUy6DpP-44" value="Option 4" style="text;html=1;align=center;verticalAlign=middle;whiteSpace=wrap;rounded=0;" vertex="1" parent="1">
          <mxGeometry x="525" y="280" width="100" height="30" as="geometry" />
        </mxCell>
        <mxCell id="YA3-FLJ5RVMtPMUy6DpP-45" value="Option 5" style="text;html=1;align=center;verticalAlign=middle;whiteSpace=wrap;rounded=0;" vertex="1" parent="1">
          <mxGeometry x="525" y="305" width="100" height="30" as="geometry" />
        </mxCell>
        <mxCell id="YA3-FLJ5RVMtPMUy6DpP-46" value="Option 6" style="text;html=1;align=center;verticalAlign=middle;whiteSpace=wrap;rounded=0;" vertex="1" parent="1">
          <mxGeometry x="525" y="330" width="100" height="30" as="geometry" />
        </mxCell>
        <mxCell id="YA3-FLJ5RVMtPMUy6DpP-47" value="Option 7" style="text;html=1;align=center;verticalAlign=middle;whiteSpace=wrap;rounded=0;" vertex="1" parent="1">
          <mxGeometry x="525" y="355" width="100" height="30" as="geometry" />
        </mxCell>
        <mxCell id="YA3-FLJ5RVMtPMUy6DpP-48" value="Option 8" style="text;html=1;align=center;verticalAlign=middle;whiteSpace=wrap;rounded=0;" vertex="1" parent="1">
          <mxGeometry x="525" y="380" width="100" height="30" as="geometry" />
        </mxCell>
        <mxCell id="YA3-FLJ5RVMtPMUy6DpP-49" value="Option 9" style="text;html=1;align=center;verticalAlign=middle;whiteSpace=wrap;rounded=0;" vertex="1" parent="1">
          <mxGeometry x="525" y="405" width="100" height="30" as="geometry" />
        </mxCell>
        <mxCell id="YA3-FLJ5RVMtPMUy6DpP-50" value="Option 1, 2, or 3" style="text;html=1;align=center;verticalAlign=middle;whiteSpace=wrap;rounded=0;" vertex="1" parent="1">
          <mxGeometry x="525" y="165" width="100" height="30" as="geometry" />
        </mxCell>
        <mxCell id="YA3-FLJ5RVMtPMUy6DpP-51" value="Return Home Button" style="rounded=0;whiteSpace=wrap;html=1;" vertex="1" parent="1">
          <mxGeometry x="465" y="610" width="220" height="50" as="geometry" />
        </mxCell>
        <mxCell id="YA3-FLJ5RVMtPMUy6DpP-52" value="Option 1 or 2" style="text;html=1;align=center;verticalAlign=middle;whiteSpace=wrap;rounded=0;" vertex="1" parent="1">
          <mxGeometry x="525" y="460" width="100" height="30" as="geometry" />
        </mxCell>
        <mxCell id="YA3-FLJ5RVMtPMUy6DpP-54" value="Subtotal" style="text;html=1;align=center;verticalAlign=middle;whiteSpace=wrap;rounded=0;" vertex="1" parent="1">
          <mxGeometry x="525" y="515" width="100" height="30" as="geometry" />
        </mxCell>
        <mxCell id="YA3-FLJ5RVMtPMUy6DpP-55" value="Sales Tax" style="text;html=1;align=center;verticalAlign=middle;whiteSpace=wrap;rounded=0;" vertex="1" parent="1">
          <mxGeometry x="525" y="540" width="100" height="30" as="geometry" />
        </mxCell>
        <mxCell id="YA3-FLJ5RVMtPMUy6DpP-56" value="Total" style="text;html=1;align=center;verticalAlign=middle;whiteSpace=wrap;rounded=0;" vertex="1" parent="1">
          <mxGeometry x="525" y="570" width="100" height="30" as="geometry" />
        </mxCell>
      </root>
    </mxGraphModel>
  </diagram>
</mxfile>
